<svg width="73" height="11" viewBox="0 0 73 11" fill="none" xmlns="http://www.w3.org/2000/svg">
<path d="M66.869 0L68.0287 0.130676L69.1306 0.51619L70.1188 1.13719L70.9442 1.96255L71.5652 2.95088L71.9507 4.0526L72.0814 5.21249L71.9507 6.37239L71.5652 7.47411L70.9442 8.46243L70.1188 9.2878L69.1306 9.9088L68.0287 10.2943L66.869 10.425L1.56372 6.77625L1.21576 6.73703L0.885254 6.62138L0.588745 6.43509L0.341125 6.18747L0.154846 5.89098L0.0391846 5.56046L0 5.21249L0.0391846 4.86453L0.154846 4.53401L0.341125 4.23752L0.588745 3.9899L0.885254 3.8036L1.21576 3.68796L1.56372 3.64874L66.869 0Z" fill="black"/>
</svg>
