<svg width="58" height="11" viewBox="0 0 58 11" fill="none" xmlns="http://www.w3.org/2000/svg">
<path d="M57.6691 5.2125C57.6691 6.59471 57.1201 7.92033 56.1428 8.89783C55.1656 9.87532 53.8401 10.4246 52.4579 10.425C51.0757 10.4253 49.75 9.87668 48.7722 8.89968C47.7945 7.92267 47.2448 6.59732 47.2441 5.2151C47.2435 3.83289 47.7918 2.50699 48.7686 1.52901C49.7453 0.551024 51.0705 0.00103813 52.4528 1.46812e-06C53.835 -0.00103519 55.1609 0.546967 56.1392 1.52348C57.1174 2.5 57.6677 3.82506 57.6691 5.20728V5.2125Z" fill="black"/>
<path d="M40.0572 5.21219C40.0572 6.34728 39.6064 7.43589 38.8038 8.23862C38.0013 9.04135 36.9129 9.49245 35.7778 9.49274C34.6427 9.49302 33.5539 9.04246 32.751 8.24013C31.948 7.4378 31.4967 6.34941 31.4961 5.21433C31.4955 4.07924 31.9459 2.9904 32.748 2.18727C33.5501 1.38414 34.6384 0.932493 35.7734 0.931642C36.9085 0.930791 37.9975 1.38082 38.8008 2.18274C39.6042 2.98467 40.0561 4.07282 40.0572 5.2079V5.21219Z" fill="black"/>
<path d="M22.4453 5.21384C22.4453 6.1018 22.0926 6.9534 21.4648 7.58136C20.837 8.20932 19.9855 8.56222 19.0975 8.56244C18.2096 8.56266 17.3579 8.2102 16.7297 7.58255C16.1016 6.9549 15.7485 6.10347 15.748 5.21552C15.7476 4.32756 16.0999 3.47578 16.7274 2.8475C17.3548 2.21923 18.2062 1.8659 19.0942 1.86524C19.9821 1.86457 20.834 2.21662 21.4624 2.84395C22.0908 3.47128 22.4444 4.32254 22.4453 5.2105V5.21384Z" fill="black"/>
<path d="M4.83331 5.21353C4.83331 5.85436 4.57881 6.46896 4.12573 6.92215C3.67265 7.37534 3.05813 7.63003 2.4173 7.63019C1.77647 7.63035 1.1618 7.37597 0.708496 6.923C0.255191 6.47004 0.000320718 5.85557 3.02477e-07 5.21474C-0.000320113 4.57391 0.253935 3.95919 0.706787 3.50577C1.15964 3.05235 1.77403 2.79736 2.41486 2.79688C3.05569 2.7964 3.67049 3.05047 4.12402 3.50321C4.57756 3.95594 4.83267 4.57029 4.83331 5.21112V5.21353Z" fill="black"/>
</svg>
